<svg xmlns="http://www.w3.org/2000/svg" viewBox="0 0 100 125">
  <path d="M80.372 48.425a2.709 2.709 0 01-2.706-2.706 2.709 2.709 0 012.706-2.706 2.71 2.71 0 012.706 2.706 2.709 2.709 0 01-2.706 2.706m-12.036-18.14a2.71 2.71 0 012.706 2.706 2.709 2.709 0 01-2.706 2.706 2.709 2.709 0 01-2.705-2.706 2.709 2.709 0 012.705-2.706m-18.558.26a2.709 2.709 0 01-2.706-2.706 2.709 2.709 0 012.706-2.706 2.709 2.709 0 012.705 2.706 2.709 2.709 0 01-2.705 2.706M31.91 35.49a2.709 2.709 0 01-2.706-2.706 2.709 2.709 0 012.706-2.705 2.709 2.709 0 012.706 2.705 2.709 2.709 0 01-2.706 2.706m-12.644 6.668a2.709 2.709 0 012.706 2.706 2.709 2.709 0 01-2.706 2.706 2.709 2.709 0 01-2.706-2.706 2.709 2.709 0 012.706-2.706M49.331 77.01a9.225 9.225 0 01-2.366-.307c-.147-.038-.292-.08-.436-.124-4.335-1.341-7.428-6.074-6.695-10.638.464-2.894 2.583-5.938 4.031-8.435 4.066-7.01 8.026-14.078 12.01-21.137.32-.566.853-.82 1.383-.82.816 0 1.623.603 1.628 1.603l.13 26.653c.017 3.712.08 7.163-2.597 10.073-1.832 1.99-4.425 3.132-7.088 3.132m45.382-29.788C86.728 29.946 69.582 18 49.717 18 30.336 18 13.544 29.372 5.322 45.969c-.774 1.563-.1 3.474 1.469 4.168l29.168 12.897a14.12 14.12 0 00-.548 2.196c-.526 3.275.217 6.7 2.091 9.644 1.842 2.891 4.577 5.016 7.703 5.984a14.84 14.84 0 001.267.33c.937.2 1.899.3 2.86.3 3.92 0 7.706-1.668 10.383-4.578 3.825-4.158 3.8-9.032 3.78-12.948v-.18l-.002-.325 29.64-12.106c1.59-.65 2.313-2.544 1.58-4.13" fill="#FFFFFF" fill-rule="evenodd"/>
</svg>
